<svg version="1.2" xmlns="http://www.w3.org/2000/svg" width="23" height="15"><path d="M6.8 14.9q-2.2-.1-3.9-1.4Q.7 11.9.2 9.3q-.3-1-.2-2Q.2 5 1.6 3.2 3.2 1.4 5.5.8 6.1.6 6.7.6h.7q1.8 0 3.4.9c.7.4 1.1.8 1.2.9q-1 1.1-2.1 2.1c-.5-.4-1.1-.9-2.1-1q-.3-.1-.6-.1c-2 0-3.7 1.5-4.1 3.4q-.2.6-.1 1.3c.1 1.8 1.3 3.2 2.9 3.7q.6.2 1.3.2h.3c.7 0 1.4-.2 2.1-.7 1.1-.7 1.4-1.8 1.4-2.1H7.2V6.3h6.7c.4 2.1.1 4.3-1.2 6.1-.9 1.1-2.2 1.9-3.6 2.3q-1 .2-1.9.2h-.4zm13.3-4h-1.9V8.4h-2.5v-2h2.5V3.9h2v2.5h2.5v2h-2.5v2.5z" fill="#888"/></svg>