<svg version="1.2" xmlns="http://www.w3.org/2000/svg" width="67" height="64"><path fill="#243f4d" fill-rule="evenodd" d="M55.7 57.4l-4.3 4.2c-1.6 1.6-3.8 2.4-6.6 2.4-2.5 0-5.4-.6-8.7-1.9-6.5-2.6-13.6-7.6-20.1-13.9C9.6 41.8 4.6 34.7 2 28.3c-2.8-6.8-2.6-12.2.4-15.2l4.3-4.2c1.1-1.1 2.5-1.5 4-1.4 1.4.2 2.5 1 3.2 2.2l6.5 11.5c1 1.8.7 4-.7 5.4l-4.1 4c-.8.9-.9 2.2-.2 3.1 2.1 2.8 4.5 5.5 7.1 8.1 2.6 2.6 5.3 4.9 8.1 7 1 .7 2.3.6 3.1-.2l4.1-4.1c1.4-1.4 3.7-1.7 5.5-.7l11.5 6.4c1.3.7 2.1 1.9 2.3 3.3.2 1.4-.3 2.8-1.4 3.9zm-1.5-1.5l-.8.7-9.9-5.3c-.5-.3-1.1-.1-1.4.4-.3.5-.1 1.2.4 1.5l9.3 5-1.9 1.9c-2.4 2.3-7.1 2.3-13 0-6.2-2.5-13.1-7.3-19.4-13.5-6.2-6.1-11-12.9-13.5-19.1-2.4-5.9-2.4-10.5-.1-12.8l2-2 1 1.9c.2.4.6.6 1 .6q.2 0 .5-.2c.5-.2.7-.9.4-1.4l-1.3-2.5.7-.7c.5-.5 1.2-.7 1.8-.7h.4c.7.1 1.3.5 1.6 1.1l6.5 11.5c.6.9.4 2-.3 2.8l-2 1.9-5.1-9.2c-.2-.5-.9-.7-1.4-.4-.6.2-.8.9-.5 1.4l5.4 9.8-.5.5c-1.6 1.6-1.8 4.1-.5 5.9 2.2 2.8 4.6 5.6 7.3 8.3 2.7 2.7 5.5 5.1 8.4 7.2 1.8 1.3 4.4 1.1 6-.4l.5-.6 2.5 1.4q.2.1.5.1c.4 0 .7-.2.9-.6.3-.5.1-1.1-.4-1.4l-1.9-1 1.9-2c.8-.7 2-.9 2.9-.3l11.6 6.4c.6.3 1 .9 1.1 1.7.1.7-.2 1.5-.7 2.1zm-1.1-27.3c0 .6-.5 1-1.1 1h-1.2v3.5c0 .6-.5 1.1-1.1 1.1-.6 0-1.1-.5-1.1-1.1v-3.5h-7c-.3 0-.6-.1-.8-.4-.2-.2-.3-.6-.3-.9L42.9 18c.1-.6.7-.9 1.3-.8.5.1.9.7.8 1.3l-2 9h5.6v-9.2c0-.6.5-1.1 1.1-1.1.6 0 1.1.5 1.1 1.1v9.2H52c.6 0 1.1.5 1.1 1.1zm-13.9 4.5c0 .6-.5 1.1-1.1 1.1h-9.2c-.6 0-1.1-.5-1.1-1.1 0-3.2 2.7-4.7 5-6 2.7-1.4 4.3-2.4 4.3-4.6 0-1.7-1.6-3.2-3.6-3.2-1.9 0-3.5 1.5-3.5 3.2 0 .6-.5 1.1-1.1 1.1-.6 0-1.1-.5-1.1-1.1 0-2.9 2.6-5.3 5.7-5.3 3.2 0 5.7 2.4 5.7 5.3 0 3.6-2.9 5.2-5.3 6.5-1.9 1.1-3.3 1.8-3.8 3.1h8c.6 0 1.1.5 1.1 1zm23.1 12.4c.2.6-.2 1.2-.8 1.3l-5.8 1.1q-.1.1-.2.1c-.3 0-.6-.1-.8-.4-.2-.2-.3-.6-.3-.9l1.2-5.7c.1-.6.7-1 1.3-.9.6.1.9.7.8 1.3l-.5 2.4c4.9-4.6 7.6-10.9 7.6-17.5C64.8 13 53.9 2.1 40.5 2.1c-8 0-15.4 3.9-20 10.3-.3.5-1 .6-1.5.3-.5-.4-.6-1.1-.3-1.5C23.7 4.2 31.8 0 40.5 0 55.1 0 67 11.8 67 26.3c0 7.1-2.9 13.9-8 18.8l2.1-.4c.6-.1 1.1.3 1.2.8zM41.5 5.7v2.2c0 .6-.5 1.1-1 1.1-.6 0-1.1-.5-1.1-1.1V5.7c0-.6.5-1.1 1.1-1.1.5 0 1 .5 1 1.1zm20.9 20.6c0 .6-.5 1-1.1 1H59c-.6 0-1.1-.4-1.1-1s.5-1.1 1.1-1.1h2.3c.6 0 1.1.5 1.1 1.1zm-37-8.7c-.2.4-.6.6-1 .6q-.3 0-.5-.2l-2-1.1c-.6-.3-.7-1-.4-1.5.3-.5.9-.7 1.4-.4l2.1 1.2c.5.3.7.9.4 1.4zm34 19.5c-.2.4-.5.6-.9.6q-.3 0-.5-.2l-2.1-1.1c-.5-.3-.7-1-.4-1.5.3-.5 1-.7 1.5-.4l2 1.2c.6.2.7.9.4 1.4zM51.8 9l-1.2 1.9c-.2.4-.5.6-.9.6q-.3 0-.5-.2c-.6-.3-.7-.9-.4-1.4l1.1-2c.3-.5 1-.7 1.5-.4.5.3.7.9.4 1.5zM32.1 42.7l-1.1 2c-.2.3-.6.5-1 .5q-.2 0-.5-.1c-.5-.3-.7-1-.4-1.5l1.2-2c.3-.5.9-.7 1.4-.4.6.3.7 1 .4 1.5zM59 16.9L57 18q-.2.2-.5.2c-.4 0-.7-.2-1-.6-.3-.5-.1-1.1.4-1.4L58 15c.5-.3 1.1-.1 1.4.4.3.5.2 1.2-.4 1.5zM25 36.4l-2.1 1.1q-.2.2-.5.2c-.4 0-.7-.2-.9-.6-.3-.5-.2-1.2.4-1.4l2-1.2c.5-.3 1.2-.1 1.5.4.3.5.1 1.2-.4 1.5zm6.7-25.1q-.2.2-.5.2c-.4 0-.7-.2-.9-.6L29.1 9c-.3-.6-.1-1.2.4-1.5.5-.3 1.2-.1 1.5.4l1.1 2c.3.5.2 1.1-.4 1.4zm19.7 33.8q-.3.1-.5.1c-.4 0-.8-.2-1-.5l-1.1-2c-.3-.5-.2-1.2.4-1.5.5-.3 1.2-.1 1.4.4l1.2 2c.3.5.1 1.2-.4 1.5z"/></svg>