<svg viewBox="0 0 67 64" xmlns="http://www.w3.org/2000/svg">
  <style>
    <![CDATA[:root>svg{display:none}:root>svg:target{display:block}]]>
  </style>
  <svg version="1.2" viewBox="0 0 22 9" id="arrow-link" xmlns="http://www.w3.org/2000/svg">
    <path d="M0 5.2V3.8c0-.1.1-.3.3-.3h17L17.1.7V.3l.2-.2q.1-.1.2-.1t.2.1l4.2 4.2q.1.1.1.2t-.1.2l-4.2 4.2q-.1.1-.2.1t-.2-.1l-.2-.2v-.4l.1-2.8H.3c-.2 0-.3-.2-.3-.3z" style="fill:#fff"/>
  </svg>
  <svg version="1.2" viewBox="0 0 22 9" id="arrow-link-dark" xmlns="http://www.w3.org/2000/svg">
    <path d="M0 5.2V3.8c0-.1.1-.3.3-.3h17L17.1.7V.3l.2-.2q.1-.1.2-.1t.2.1l4.2 4.2q.1.1.1.2t-.1.2l-4.2 4.2q-.1.1-.2.1t-.2-.1l-.2-.2v-.4l.1-2.8H.3c-.2 0-.3-.2-.3-.3z" style="fill:#436372"/>
  </svg>
  <svg version="1.2" viewBox="0 0 6 10" id="arrow-right" xmlns="http://www.w3.org/2000/svg">
    <path d="M.1 9.4Q0 9.2 0 9t.1-.3L4 4.8.1.9Q0 .7 0 .5T.1.1c.2-.2.5-.2.7 0L5 4.4l.1.1q.1.1.1.3 0 .1-.1.2 0 .1-.1.1L.8 9.4q-.1.1-.3.1-.2 0-.4-.1z" style="fill:#243f4d"/>
  </svg>
  <svg version="1.2" viewBox="0 0 42 42" id="award" xmlns="http://www.w3.org/2000/svg">
    <path fill-rule="evenodd" d="M12.9 32.7c0-1.3.3-2.6.8-3.7L.5 8.6c-.2-.4-.2-.9.1-1.2L6.9 1q.3-.2.7-.2h27.3q.4 0 .6.2l6.4 6.4c.3.3.3.8.1 1.2L28.8 29c.5 1.1.8 2.4.8 3.7 0 4.7-3.8 8.5-8.4 8.5-4.6 0-8.3-3.8-8.3-8.5zm1.8 0c0 3.7 2.9 6.7 6.5 6.7 3.7 0 6.6-3 6.6-6.7S24.9 26 21.2 26c-3.6 0-6.5 3-6.5 6.7zm8.5-8.2c1.8.4 3.4 1.4 4.5 2.8L39.6 9h-6.4zm-8.4 2.9c1.1-1.4 2.7-2.5 4.5-2.9L9.3 9H2.9zm6.5-3.1L31.1 9H11.4zM3.5 7.3h35.7l-4.6-4.6H8zm17.3 28.9v-4.9h-.5c-.5 0-.9-.4-.9-.9s.4-.9.9-.9h1.4c.5 0 .9.4.9.9v5.8c0 .5-.4.9-.9.9s-.9-.4-.9-.9z" style="fill:#a3bbc8"/>
  </svg>
  <svg version="1.2" viewBox="0 0 7 12" id="blog-arrow" xmlns="http://www.w3.org/2000/svg">
    <path d="M1.3 11.7q-.2 0-.4-.2-.1-.2-.1-.4t.1-.4l4.6-4.5L.9 1.7q-.1-.2-.1-.4T.9.9c.2-.2.6-.3.8 0l5 4.9q.1.1.1.2.1.1.1.2t-.1.2-.1.2l-5 4.9q-.1.2-.4.2z" style="fill:#262626"/>
  </svg>
  <svg version="1.2" viewBox="0 0 48 64" id="brand" xmlns="http://www.w3.org/2000/svg">
    <path fill="#243f4d" fill-rule="evenodd" d="M32.6 9.4c-.3.5-.9.7-1.4.4-6.1-3.2-13.6-1.9-18.5 3-5.7 5.8-6.3 15-1.4 21.4.4.4.3 1.1-.1 1.4q-.3.2-.6.2c-.3 0-.6-.1-.8-.4-5.6-7.2-5-17.5 1.5-24C16.8 5.8 25.2 4.5 32.1 8c.5.3.7.9.5 1.4zm4.2 27.7c-3.5 3.6-8.2 5.4-12.8 5.4-3.9 0-7.8-1.3-11-3.8-.5-.4-.6-1-.2-1.5.3-.4.9-.5 1.4-.1 6.3 5 15.4 4.4 21.2-1.4 4.9-4.9 6.1-12.5 2.9-18.7-.2-.5 0-1.1.5-1.4.5-.2 1.1 0 1.3.5 3.5 7 2.2 15.5-3.3 21zm.7-23.5q-.3.3-.7.3c-.3 0-.6-.1-.8-.3l-.6-.8q-.4-.3-.8-.7c-.4-.3-.4-1-.1-1.4.4-.4 1-.5 1.4-.1q.5.4.9.8t.7.8c.4.4.4 1.1 0 1.4zm8.8 14.7c-.2.2-.3.6-.2.9l.4 2.5c.2 1.3-.4 2.6-1.4 3.3l-2 1.5c-.3.2-.5.5-.6.8l-.6 2.5c-.3 1.3-1.2 2.2-2.5 2.5l-.9.3 6.9 15.6c.1.3.1.7-.1 1-.2.3-.6.4-.9.4l-5.6-.7-3.2 4.7c-.2.2-.5.4-.8.4h-.1c-.4 0-.7-.3-.9-.6l-7-15.9-1 .5c-.5.4-1.1.5-1.7.5-.7 0-1.3-.1-1.8-.5l-.9-.5-7.1 15.9c-.1.3-.4.6-.8.6h-.1c-.3 0-.6-.2-.8-.4l-3.2-4.7-5.6.7c-.3 0-.7-.1-.9-.4-.2-.3-.3-.7-.1-1l6.9-15.6-1-.3c-1.3-.3-2.2-1.2-2.5-2.5l-.6-2.5c-.1-.3-.3-.6-.6-.8L3 35c-1-.7-1.5-2-1.3-3.3l.3-2.5q.1-.5-.1-.9L.5 26.1c-.6-1.1-.6-2.5 0-3.6l1.4-2.2c.1-.3.2-.6.1-.9l-.3-2.5c-.2-1.3.3-2.6 1.3-3.4l2-1.4c.3-.2.5-.5.6-.9l.6-2.4c.3-1.3 1.2-2.3 2.5-2.6l2.4-.6q.5-.1.8-.5L13.4 3c.8-1 2-1.5 3.3-1.3l2.5.4q.5 0 .9-.2L22.3.5c1.1-.6 2.4-.6 3.5 0L28 1.9c.3.1.6.2.9.2l2.5-.4c1.3-.2 2.5.3 3.3 1.3l1.5 2.1c.2.3.5.5.8.5l2.4.6c1.3.3 2.2 1.3 2.5 2.6l.6 2.4q.2.5.6.9l2 1.4c1 .8 1.6 2.1 1.4 3.4l-.4 2.5c-.1.3 0 .6.2.9l1.3 2.2c.6 1.1.6 2.5 0 3.6zM13.2 61l-2.5-3.7c-.2-.3-.6-.5-.9-.4l-4.5.5 6.3-14.2q.2.1.4.3l1.4 2.1q.2.3.5.5l-3.3 7.5c-.2.5 0 1.1.5 1.3q.2.1.4.1c.4 0 .7-.2.9-.6l3.3-7.5q.5.1 1 0l2.5-.4h.4zm29.7-3.5-4.5-.6c-.3 0-.7.2-.9.5L35 61l-6.4-14.4h.4l2.4.4q.6.1 1.1 0l3.3 7.5c.2.3.5.6.9.6q.2 0 .4-.1c.5-.3.7-.9.5-1.4l-3.3-7.5q.2-.2.4-.5l1.5-2q.1-.2.3-.4zM46 25.2l-1.3 2.2c-.5.7-.6 1.5-.5 2.3l.4 2.5c.1.5-.1 1-.6 1.4l-2 1.5c-.6.4-1.1 1.1-1.3 1.9l-.6 2.5c-.1.5-.5.9-1 1l-2.5.6c-.8.2-1.5.7-1.9 1.4l-1.5 2c-.3.4-.8.7-1.4.6l-2.4-.4c-.8-.1-1.7 0-2.3.4l-2.2 1.4c-.5.2-1 .2-1.5 0l-2.1-1.4c-.6-.3-1.2-.5-1.8-.5q-.3 0-.5.1l-2.5.4c-.5.1-1-.2-1.4-.6l-1.4-2c-.5-.7-1.2-1.2-2-1.4l-2.4-.6c-.6-.1-1-.5-1.1-1L7.6 37c-.2-.8-.6-1.5-1.3-1.9l-2-1.5c-.4-.4-.7-.9-.6-1.4l.4-2.5c.1-.8 0-1.6-.4-2.3l-1.3-2.2c-.3-.5-.3-1 0-1.5l1.3-2.2c.4-.7.5-1.5.4-2.3l-.4-2.5c-.1-.5.2-1 .6-1.4l2-1.5c.7-.4 1.1-1.1 1.3-1.9l.6-2.5c.2-.5.5-.9 1.1-1l2.4-.6c.8-.2 1.5-.7 2-1.4l1.4-2c.4-.4.9-.7 1.4-.6l2.5.4c.8.1 1.6 0 2.3-.4l2.1-1.4c.5-.3 1-.3 1.5 0l2.2 1.4c.6.4 1.5.5 2.3.4l2.4-.4c.6-.1 1.1.2 1.4.6l1.5 2c.4.7 1.1 1.2 1.9 1.4l2.5.6c.5.1.9.5 1 1l.6 2.5c.2.8.7 1.5 1.3 1.9l2 1.5c.5.4.7.9.6 1.4l-.4 2.5c-.1.8 0 1.6.5 2.3l1.3 2.2c.3.5.3 1 0 1.5zm-10.6-2-4.5 4.2 1.2 5.9c.1.8-.1 1.5-.7 1.9-.6.4-1.3.4-2 .1l-5.2-3-5.3 3q-.4.2-.9.2-.6 0-1.1-.3c-.5-.4-.8-1.1-.7-1.9l1.2-5.9-4.4-4.2c-.5-.5-.7-1.2-.5-1.9.2-.7.8-1.1 1.5-1.2l6-.8 2.5-5.5c.3-.7 1-1.1 1.7-1.1s1.3.4 1.6 1.1l2.5 5.5 6 .8c.8.1 1.3.5 1.6 1.2.2.7 0 1.4-.5 1.9zm-6.2 3.1c-.3.2-.4.6-.3.9l1.2 6.1-5.4-3q-.3-.2-.5-.2-.3 0-.5.2l-5.4 3 1.2-6.1c.1-.3-.1-.7-.3-.9L14.6 22l6.2-.7c.3-.1.6-.3.8-.6l2.6-5.7 2.6 5.7c.1.3.4.5.7.6l6.2.7z"/>
  </svg>
  <svg version="1.2" viewBox="0 0 15 11" id="btn-arrow" xmlns="http://www.w3.org/2000/svg">
    <path d="M8.5 10.8c-.3-.2-.2-.6 0-.8l4.3-3.9H.6c-.3 0-.6-.3-.6-.6s.3-.6.6-.6h12.2L8.5 1c-.2-.2-.3-.6 0-.8.2-.3.6-.3.9 0l5.4 4.9q.2.1.2.3v.1q0 .2-.2.4l-5.4 4.9q-.2.2-.5.2-.2 0-.4-.2z" style="fill:#fff"/>
  </svg>
  <svg version="1.2" viewBox="0 0 18 18" id="cam" xmlns="http://www.w3.org/2000/svg">
    <path fill-rule="evenodd" d="M3.6 17.5c-2-.5-3.1-1.8-3.4-3.8-.3-1.4-.3-8.1.1-9.6.6-1.9 1.8-3 3.8-3.3C4.9.6 6.7.6 8.4.6c1.6 0 3.2 0 4.2.1 1.2 0 2.2.4 3.1 1.2.9.8 1.3 1.8 1.4 3 .1 1.3.2 7.7-.2 9.2q-.8 3-3.8 3.5c-.7.1-2.7.2-4.7.2-2.1 0-4.1-.1-4.8-.3zm.9-15.3C3 2.4 2 3.3 1.8 4.8c-.3 1.6-.3 7.5-.1 8.7.2 1.3.9 2.1 2.1 2.4.7.2 2.7.3 4.6.3 1.9 0 3.6-.1 4.3-.1 1.5-.2 2.5-1.1 2.7-2.6.3-1.5.3-7.1.1-8.5-.1-1.5-1-2.5-2.5-2.7-.8-.1-2.6-.2-4.3-.2-1.7 0-3.4.1-4.2.1zm-.3 7c0-2.5 2-4.5 4.4-4.4 2.5 0 4.4 1.9 4.4 4.4 0 2.4-2 4.4-4.4 4.4-2.5 0-4.4-2-4.4-4.4zm1.5-.1C5.7 10.7 7 12 8.5 12h.1c1.5 0 2.8-1.2 2.8-2.8.1-1.6-1.2-2.9-2.8-2.9-1.5 0-2.8 1.3-2.9 2.8zm6.5-4.5c0-.6.5-1 1-1 .6 0 1.1.4 1.1 1-.1.6-.5 1-1.1 1-.6 0-1-.5-1-1z" style="fill:#888"/>
  </svg>
  <svg version="1.2" viewBox="0 0 19 17" id="cart" xmlns="http://www.w3.org/2000/svg">
    <path fill-rule="evenodd" d="M5.5 17c-.5 0-1-.2-1.4-.6-.6-.6-.8-1.5-.5-2.3.3-.8 1.1-1.3 1.9-1.3.6 0 1.1.2 1.5.6.4.4.6.9.6 1.5 0 .8-.5 1.6-1.3 1.9q-.4.2-.8.2zm0-3c-.3 0-.7.2-.8.6-.1.3-.1.7.2.9.3.3.6.4 1 .2.3-.1.5-.4.5-.8q0-.4-.2-.6-.3-.3-.7-.3zm8.4 3c-.5 0-1-.2-1.4-.6-.6-.6-.8-1.5-.5-2.3.3-.8 1.1-1.3 1.9-1.3.6 0 1.1.2 1.5.6.4.4.6.9.6 1.5 0 .8-.5 1.6-1.3 1.9q-.4.2-.8.2zm0-3c-.3 0-.7.2-.8.6-.1.3-.1.7.2.9.2.3.6.4 1 .2.3-.1.5-.4.5-.8q0-.4-.3-.6c-.1-.2-.3-.3-.6-.3zm-11.3.2q-.1 0-.2-.1c-.3-.1-.4-.5-.3-.8.6-1.2 1.6-1.9 3.1-2.1L4.1 5.8c-.1-.3.2-.6.5-.7.3-.1.6.1.7.5l1.1 5.5h9.4l1.8-6.7H4.3C2.2 4.4.3 2.8 0 .7 0 .4.2.1.5 0c.3 0 .6.2.7.5.2 1.5 1.5 2.7 3.1 2.7h14.1q.3 0 .4.2.2.3.1.5l-2.1 8c-.1.2-.3.4-.6.4H5.9q-2 0-2.7 1.5c-.1.3-.3.4-.6.4z" style="fill:#243f4d"/>
  </svg>
  <svg version="1.2" viewBox="0 0 22 20" id="cart2" xmlns="http://www.w3.org/2000/svg">
    <path fill="#a3bbc8" fill-rule="evenodd" d="M0 .8C0 .4.4 0 .8 0h3c.3 0 .6.2.7.6l3.4 12h9l3-6.9h-10c-.4 0-.8-.4-.8-.8 0-.5.4-.8.8-.8h11.3c.3 0 .5.1.7.3.1.3.1.6 0 .8l-3.7 8.6c-.1.3-.4.5-.7.5H7.3c-.4 0-.7-.3-.8-.6L3.1 1.6H.8c-.4 0-.8-.3-.8-.8zm4.6 17.4c0-1.1.9-1.9 1.9-1.9 1 0 1.8.8 1.8 1.9 0 1-.8 1.8-1.8 1.8s-1.9-.8-1.9-1.8zm11.6.1c-.1-1 .7-1.9 1.7-2 1-.1 1.9.7 2 1.7 0 .5-.2 1-.5 1.4-.3.3-.8.6-1.3.6H18c-.9 0-1.7-.8-1.8-1.7z"/>
  </svg>
  <svg version="1.2" viewBox="0 0 55 37" id="delivery" xmlns="http://www.w3.org/2000/svg">
    <path d="M10.6 6.1c0 .5-.3.8-.8.8H3.7c-.4 0-.8-.3-.8-.8 0-.4.4-.8.8-.8h6.1c.5 0 .8.4.8.8zm.5 11c0 .5-.3.8-.8.8H4.7c-.4 0-.7-.3-.7-.8 0-.4.3-.8.7-.8h5.6c.5 0 .8.4.8.8zM9 12.4c0 .4-.3.8-.8.8H1.6c-.4 0-.8-.4-.8-.8s.4-.8.8-.8h6.6c.5 0 .8.4.8.8zm0 11c0 .4-.3.8-.8.8h-.6c-.4 0-.8-.4-.8-.8s.4-.8.8-.8h.6c.5 0 .8.4.8.8zm-3.2 0c0 .4-.4.8-.8.8H1.6c-.4 0-.8-.4-.8-.8s.4-.8.8-.8H5c.4 0 .8.4.8.8zm44.1-12.5v14c0 .5-.3.8-.8.8h-2.7c-.4 2.4-2.5 4.2-5 4.2-2.4 0-4.5-1.8-4.9-4.2H25.3c-.4 2.4-2.5 4.2-4.9 4.2-2.5 0-4.6-1.8-4.9-4.2H13c-.4 0-.7-.3-.7-.8V1.4c0-.5.3-.8.7-.8h6.1c.4 0 .8.3.8.8 0 .4-.4.7-.8.7h-5.3v22.1h1.7c.3-2.4 2.4-4.2 4.9-4.2 2.4 0 4.5 1.8 4.9 4.2h8.3V23c0-.4.4-.8.8-.8s.8.4.8.8v1.2h1.3c.4-2.4 2.5-4.2 4.9-4.2 2.5 0 4.6 1.8 5 4.2h2V10.9c0-3.6-3-6.6-6.6-6.6h-6.6v15.1c0 .4-.4.7-.8.7s-.8-.3-.8-.7V2.1H22.2c-.4 0-.8-.3-.8-.7 0-.5.4-.8.8-.8h12.2c.4 0 .8.3.8.8v1.4h6.6c4.5 0 8.1 3.6 8.1 8.1zM20.4 28.3c-1.9 0-3.4-1.5-3.4-3.4 0-1.8 1.5-3.4 3.4-3.4 1.8 0 3.4 1.6 3.4 3.4 0 1.9-1.6 3.4-3.4 3.4zm21 0c-1.8 0-3.4-1.5-3.4-3.4 0-1.8 1.6-3.4 3.4-3.4 1.9 0 3.4 1.6 3.4 3.4 0 1.9-1.5 3.4-3.4 3.4zm5.4-17.4v3.2c0 .4-.4.8-.8.8h-8.5c-.4 0-.7-.4-.7-.8V6.7c0-.4.3-.8.7-.8h4.3c2.8 0 5 2.2 5 5zm-1.6 2.4h-6.9V7.5h3.5c1.9 0 3.4 1.5 3.4 3.4zM22.4 24.9c0 1.1-.9 2-2 2s-2.1-.9-2.1-2 1-2 2.1-2 2 .9 2 2zm-2 .4c-.3 0-.5-.2-.5-.4 0-.3.2-.5.5-.5.2 0 .4.2.4.5 0 .2-.2.4-.4.4zm23.1-.4c0 1.1-.9 2-2.1 2-1.1 0-2-.9-2-2s.9-2 2-2c1.2 0 2.1.9 2.1 2zm-2.1.4c-.2 0-.4-.2-.4-.4 0-.3.2-.5.4-.5.3 0 .5.2.5.5 0 .2-.2.4-.5.4zm5.4-7.5v2c0 .4-.4.7-.8.7s-.8-.3-.8-.7v-2c0-.5.4-.8.8-.8s.8.3.8.8z" style="fill:#a3bbc8"/>
    <circle cx="44.8" cy="27.2" r="9.8" style="opacity:.3;fill:#a3bbc8"/>
  </svg>
  <svg version="1.2" viewBox="0 0 37 38" id="doc" xmlns="http://www.w3.org/2000/svg">
    <path fill-rule="evenodd" d="M2 38c-1.1 0-2-.9-2-2V8.7q0-.4.3-.7L7.7.5q.3-.3.7-.3h19.1c1.1 0 1.9.9 1.9 2v2.9c0 .5-.4.9-.9.9s-.9-.4-.9-.9V2.2c0-.1 0-.1-.1-.1H9.3v5.5c0 1.1-.9 2-2 2H1.8V36c0 .1.1.1.2.1h25.5c.1 0 .1 0 .1-.1V22.1c0-.5.4-.9.9-.9s.9.4.9.9V36c0 1.1-.8 2-1.9 2zM3.1 7.8h4.2c.1 0 .2-.1.2-.2V3.3zm4 23.8c-.5 0-1-.5-1-1s.5-.9 1-.9H11l1.4-5q0-.3.2-.4H7.1c-.5 0-1-.5-1-1s.5-.9 1-.9h7.3l5.5-5.4H7.1c-.5 0-1-.5-1-1s.5-.9 1-.9h14.6l8.4-8.5c1.2-1.2 3.1-1.2 4.3 0l1.1 1.1c1.2 1.2 1.2 3.2 0 4.4L18 29.7q-.2.2-.4.2l-5.7 1.6-.2.1zm5.9-2.3 2.6-.7-1.9-1.9zm1.6-4.5 2.8 2.9 14.5-14.6-2.9-2.8zm16.9-17-1.2 1.1 2.9 2.9 1.1-1.2c.5-.5.5-1.3 0-1.7l-1.1-1.1c-.2-.3-.5-.4-.8-.4-.4 0-.7.1-.9.4z" style="fill:#a3bbc8"/>
  </svg>
  <svg version="1.2" viewBox="0 0 23 15" id="goo" xmlns="http://www.w3.org/2000/svg">
    <path d="M6.8 14.9q-2.2-.1-3.9-1.4Q.7 11.9.2 9.3q-.3-1-.2-2Q.2 5 1.6 3.2 3.2 1.4 5.5.8 6.1.6 6.7.6h.7q1.8 0 3.4.9c.7.4 1.1.8 1.2.9q-1 1.1-2.1 2.1c-.5-.4-1.1-.9-2.1-1q-.3-.1-.6-.1c-2 0-3.7 1.5-4.1 3.4q-.2.6-.1 1.3c.1 1.8 1.3 3.2 2.9 3.7q.6.2 1.3.2h.3c.7 0 1.4-.2 2.1-.7 1.1-.7 1.4-1.8 1.4-2.1H7.2V6.3h6.7c.4 2.1.1 4.3-1.2 6.1-.9 1.1-2.2 1.9-3.6 2.3q-1 .2-1.9.2h-.4zm13.3-4h-1.9V8.4h-2.5v-2h2.5V3.9h2v2.5h2.5v2h-2.5v2.5z" style="fill:#888"/>
  </svg>
  <svg version="1.2" viewBox="0 0 64 57" id="graph" xmlns="http://www.w3.org/2000/svg">
    <path fill="#243f4d" fill-rule="evenodd" d="M64 3.4v41.1c0 1.9-1.5 3.4-3.4 3.4H38.9l.9 7h3.7c.5 0 1 .4 1 1s-.5 1.1-1 1.1h-23c-.5 0-1-.5-1-1.1 0-.6.5-1 1-1h3.7l.9-7H3.4c-1.9 0-3.4-1.5-3.4-3.4V3.4C0 1.5 1.5 0 3.4 0h57.2C62.5 0 64 1.5 64 3.4zM26.3 54.9l.9-7h9.6l.9 7zm35.5-10.4c0 .7-.6 1.2-1.3 1.2H3.3c-.7 0-1.2-.5-1.2-1.2V3.4c0-.7.5-1.3 1.2-1.3h57.2c.7 0 1.3.6 1.3 1.3v41.1zM51.3 5.6c0 .6-.5 1.1-1.1 1.1H6.6V40H9c.6 0 1.1.5 1.1 1.1 0 .6-.5 1-1.1 1H5.6c-.6 0-1.1-.4-1.1-1V5.6c0-.5.5-1 1.1-1h44.6c.6 0 1.1.5 1.1 1zm8 0v35.5c0 .6-.5 1-1 1H13.6c-.6 0-1.1-.4-1.1-1S13 40 13.6 40h43.6V6.7h-2.4c-.6 0-1.1-.5-1.1-1.1 0-.5.5-1 1.1-1h3.5c.5 0 1 .5 1 1zm-4.6 8c0 1.9-1.5 3.4-3.3 3.4q-.8 0-1.4-.3l-8.6 9.1q.4.7.4 1.6c0 1.8-1.5 3.3-3.4 3.3S35 29.2 35 27.4q0-.3.1-.6l-7.4-3.9c-.6.6-1.4 1-2.3 1q-.8-.1-1.5-.4l-8.4 8.1q.3.7.3 1.5c0 1.8-1.5 3.3-3.4 3.3-1.8 0-3.3-1.5-3.3-3.3 0-1.9 1.5-3.4 3.3-3.4q.9 0 1.6.4l8.4-8.2q-.3-.6-.3-1.4c0-1.9 1.5-3.4 3.3-3.4 1.9 0 3.4 1.5 3.4 3.4q0 .3-.1.5l7.4 3.9c.6-.5 1.4-.9 2.3-.9q.8 0 1.4.3l8.6-9.1q-.4-.7-.4-1.6c0-1.8 1.5-3.3 3.4-3.3 1.8 0 3.3 1.5 3.3 3.3zM12.4 34.3c-.6 0-1.2-.6-1.2-1.2 0-.7.6-1.2 1.2-1.2.7 0 1.3.5 1.3 1.2 0 .6-.6 1.2-1.3 1.2zm13-12.6c-.6 0-1.2-.5-1.2-1.2s.6-1.2 1.2-1.2c.7 0 1.2.5 1.2 1.2s-.5 1.2-1.2 1.2zm13 6.9c-.7 0-1.2-.6-1.2-1.2 0-.7.5-1.3 1.2-1.3s1.2.6 1.2 1.3c0 .6-.5 1.2-1.2 1.2zm13-13.7c-.7 0-1.2-.6-1.2-1.3 0-.6.5-1.2 1.2-1.2s1.2.6 1.2 1.2c0 .7-.5 1.3-1.2 1.3zm1.1 5.6v16c0 .6-.5 1.1-1.1 1.1-.6 0-1.1-.5-1.1-1.1v-16c0-.6.5-1.1 1.1-1.1.6 0 1.1.5 1.1 1.1zm-26 6.9v9.1c0 .6-.5 1.1-1.1 1.1-.6 0-1.1-.5-1.1-1.1v-9.1c0-.6.5-1.1 1.1-1.1.6 0 1.1.5 1.1 1.1zm13 6.8v2.3c0 .6-.5 1.1-1.1 1.1-.6 0-1.1-.5-1.1-1.1v-2.3c0-.6.5-1.1 1.1-1.1.6 0 1.1.5 1.1 1.1z"/>
  </svg>
  <svg version="1.2" viewBox="0 0 18 17" id="heart" xmlns="http://www.w3.org/2000/svg">
    <path d="M8.9 16.2h-.3C8.3 16 0 12.4 0 5.4.1 2.8 2.2.7 4.8.7c1.7 0 3.3.9 4.1 2.3C9.8 1.6 11.3.7 13 .7c2.6 0 4.8 2.1 4.8 4.7 0 7-8.3 10.6-8.6 10.8h-.3zM4.8 2.1C3 2.1 1.5 3.6 1.4 5.5c0 5.4 6.1 8.6 7.5 9.3 1.4-.7 7.5-3.9 7.5-9.4 0-1.8-1.5-3.3-3.4-3.3-1.8 0-3.3 1.5-3.4 3.4 0 .3-.3.6-.7.6-.4 0-.7-.3-.7-.6-.1-1.9-1.6-3.4-3.4-3.4z" style="fill:#243f4d"/>
  </svg>
  <svg version="1.2" viewBox="0 0 22 18" id="heart2" xmlns="http://www.w3.org/2000/svg">
    <path fill="#a3bbc8" fill-rule="evenodd" d="M20.7 10.2c-.8 1.3-3.1 3.3-4.7 4.7-1.7 1.4-4 3.1-5 3.1s-3.3-1.7-5-3.1c-1.6-1.4-3.9-3.4-4.7-4.7C.3 8.7-.1 7.4 0 5.8c.1-1.5.7-3 1.9-4.1C3 .6 4.5 0 6 0c2.5 0 4.1 1.9 4.9 2.8l.1.1.2-.2C12.1 1.8 13.7 0 16 0c1.5 0 3 .6 4.1 1.7 1.2 1.1 1.8 2.6 1.9 4.1.1 2-.6 3.4-1.3 4.4zm-1.1-.8c-.6 1-2.4 2.8-4.4 4.4-2.4 2.1-3.8 2.8-4.2 2.9-.3-.1-1.8-.9-4.2-2.9-2-1.7-3.8-3.4-4.4-4.4-.8-1.2-1.1-2.3-1.1-3.5.2-2.5 2.3-4.6 4.7-4.6 1.9 0 3.2 1.6 3.9 2.4.5.5.7.7 1.1.7.4 0 .7-.2 1.2-.8.7-.8 2.1-2.3 3.8-2.3 2.4 0 4.5 2.1 4.7 4.6 0 1.2-.3 2.3-1.1 3.5z"/>
  </svg>
  <svg version="1.2" viewBox="0 0 50 39" id="logo" xmlns="http://www.w3.org/2000/svg">
    <path fill-rule="evenodd" d="M.1 27.8c.1-.2 6.4-12.9 6.6-13.2.1-.4.3-.4.5-.5L42.4.1s.5-.2.9 0c.4.3.5.7.5.7l6.2 37s.1.5-.3.8c-.4.4-.9.3-.9.3l-48-9.8s-.4-.1-.6-.4c-.3-.3-.2-.7-.1-.9zm35.9-6L25.7 24l20 11.1zM2.7 26.9l17.9-3.7-12.5-7zm20.5-4.3 12.4-2.5 5.6-17.6L9.6 15.1zM42.4 5.1l-4.9 15.5L47.3 34zM22.8 24.5 5.3 28.1l38.1 7.8z" style="fill:#a3bbc8"/>
  </svg>
  <svg version="1.2" viewBox="0 0 54 53" id="payment" xmlns="http://www.w3.org/2000/svg">
    <path d="M47.3 32.2v8.2c0 2.1-1.8 3.9-3.9 3.9H4.1C2 44.3.3 42.5.3 40.4V16.8C.3 14.7 2 13 4.1 13h25.1c.5 0 .9.3.9.8s-.4.8-.9.8H4.1c-1.2 0-2.2 1-2.2 2.2v2.9h9.9c.5 0 .8.4.8.8 0 .5-.3.9-.8.9H1.9v5.4h27.3c.5 0 .9.4.9.9 0 .4-.4.8-.9.8H1.9v11.9c0 1.2 1 2.2 2.2 2.2h39.3c1.2 0 2.2-1 2.2-2.2v-8.2c0-.5.4-.9.8-.9.5 0 .9.4.9.9zM30.1 20.5c0 .5-.4.9-.9.9H15c-.5 0-.8-.4-.8-.9 0-.4.3-.8.8-.8h14.2c.5 0 .9.4.9.8zm-9.3 11.6c0 .4-.4.8-.8.8H5.7c-.5 0-.8-.4-.8-.8 0-.5.3-.9.8-.9H20c.4 0 .8.4.8.9zm-6.1 4c0 .4-.3.8-.8.8H5.7c-.5 0-.8-.4-.8-.8 0-.5.3-.9.8-.9h8.2c.5 0 .8.4.8.9zm33-15.3V16c0-.7-.6-1.4-1.4-1.4H34.4c-.7 0-1.3.7-1.3 1.4v10.8c0 .7.6 1.3 1.3 1.3h11.9c.8 0 1.4-.6 1.4-1.3v-3.2c0-.5.4-.9.8-.9.5 0 .9.4.9.9v3.2c0 1.6-1.4 3-3.1 3H34.4c-1.6 0-3-1.4-3-3V16c0-1.4 1-2.7 2.4-3V7c0-3.6 2.9-6.6 6.6-6.6C44 .4 47 3.4 47 7v6c1.3.3 2.4 1.6 2.4 3v4.8c0 .4-.4.8-.9.8-.4 0-.8-.4-.8-.8zM45.3 13h-9.8V7c0-2.7 2.2-4.9 4.9-4.9s4.9 2.2 4.9 4.9v6zm-1.8 7.4c0 1.4-1 2.6-2.3 3v2c0 .5-.4.8-.8.8-.5 0-.9-.3-.9-.8v-2c-1.3-.4-2.2-1.6-2.2-3 0-1.7 1.4-3.1 3.1-3.1 1.7 0 3.1 1.4 3.1 3.1zm-3.1 1.4c-.8 0-1.4-.6-1.4-1.4 0-.8.6-1.4 1.4-1.4.8 0 1.4.6 1.4 1.4 0 .8-.6 1.4-1.4 1.4z" style="fill:#a3bbc8"/>
    <circle cx="44" cy="42.9" r="9.8" style="opacity:.3;fill:#a3bbc8"/>
  </svg>
  <svg version="1.2" viewBox="0 0 67 64" id="phone" xmlns="http://www.w3.org/2000/svg">
    <path fill="#243f4d" fill-rule="evenodd" d="m55.7 57.4-4.3 4.2c-1.6 1.6-3.8 2.4-6.6 2.4-2.5 0-5.4-.6-8.7-1.9-6.5-2.6-13.6-7.6-20.1-13.9C9.6 41.8 4.6 34.7 2 28.3c-2.8-6.8-2.6-12.2.4-15.2l4.3-4.2c1.1-1.1 2.5-1.5 4-1.4 1.4.2 2.5 1 3.2 2.2l6.5 11.5c1 1.8.7 4-.7 5.4l-4.1 4c-.8.9-.9 2.2-.2 3.1 2.1 2.8 4.5 5.5 7.1 8.1 2.6 2.6 5.3 4.9 8.1 7 1 .7 2.3.6 3.1-.2l4.1-4.1c1.4-1.4 3.7-1.7 5.5-.7l11.5 6.4c1.3.7 2.1 1.9 2.3 3.3.2 1.4-.3 2.8-1.4 3.9zm-1.5-1.5-.8.7-9.9-5.3c-.5-.3-1.1-.1-1.4.4-.3.5-.1 1.2.4 1.5l9.3 5-1.9 1.9c-2.4 2.3-7.1 2.3-13 0-6.2-2.5-13.1-7.3-19.4-13.5-6.2-6.1-11-12.9-13.5-19.1-2.4-5.9-2.4-10.5-.1-12.8l2-2 1 1.9c.2.4.6.6 1 .6q.2 0 .5-.2c.5-.2.7-.9.4-1.4l-1.3-2.5.7-.7c.5-.5 1.2-.7 1.8-.7h.4c.7.1 1.3.5 1.6 1.1l6.5 11.5c.6.9.4 2-.3 2.8l-2 1.9-5.1-9.2c-.2-.5-.9-.7-1.4-.4-.6.2-.8.9-.5 1.4l5.4 9.8-.5.5c-1.6 1.6-1.8 4.1-.5 5.9 2.2 2.8 4.6 5.6 7.3 8.3 2.7 2.7 5.5 5.1 8.4 7.2 1.8 1.3 4.4 1.1 6-.4l.5-.6 2.5 1.4q.2.1.5.1c.4 0 .7-.2.9-.6.3-.5.1-1.1-.4-1.4l-1.9-1 1.9-2c.8-.7 2-.9 2.9-.3l11.6 6.4c.6.3 1 .9 1.1 1.7.1.7-.2 1.5-.7 2.1zm-1.1-27.3c0 .6-.5 1-1.1 1h-1.2v3.5c0 .6-.5 1.1-1.1 1.1-.6 0-1.1-.5-1.1-1.1v-3.5h-7c-.3 0-.6-.1-.8-.4-.2-.2-.3-.6-.3-.9L42.9 18c.1-.6.7-.9 1.3-.8.5.1.9.7.8 1.3l-2 9h5.6v-9.2c0-.6.5-1.1 1.1-1.1.6 0 1.1.5 1.1 1.1v9.2H52c.6 0 1.1.5 1.1 1.1zm-13.9 4.5c0 .6-.5 1.1-1.1 1.1h-9.2c-.6 0-1.1-.5-1.1-1.1 0-3.2 2.7-4.7 5-6 2.7-1.4 4.3-2.4 4.3-4.6 0-1.7-1.6-3.2-3.6-3.2-1.9 0-3.5 1.5-3.5 3.2 0 .6-.5 1.1-1.1 1.1-.6 0-1.1-.5-1.1-1.1 0-2.9 2.6-5.3 5.7-5.3 3.2 0 5.7 2.4 5.7 5.3 0 3.6-2.9 5.2-5.3 6.5-1.9 1.1-3.3 1.8-3.8 3.1h8c.6 0 1.1.5 1.1 1zm23.1 12.4c.2.6-.2 1.2-.8 1.3l-5.8 1.1q-.1.1-.2.1c-.3 0-.6-.1-.8-.4-.2-.2-.3-.6-.3-.9l1.2-5.7c.1-.6.7-1 1.3-.9.6.1.9.7.8 1.3l-.5 2.4c4.9-4.6 7.6-10.9 7.6-17.5C64.8 13 53.9 2.1 40.5 2.1c-8 0-15.4 3.9-20 10.3-.3.5-1 .6-1.5.3-.5-.4-.6-1.1-.3-1.5C23.7 4.2 31.8 0 40.5 0 55.1 0 67 11.8 67 26.3c0 7.1-2.9 13.9-8 18.8l2.1-.4c.6-.1 1.1.3 1.2.8zM41.5 5.7v2.2c0 .6-.5 1.1-1 1.1-.6 0-1.1-.5-1.1-1.1V5.7c0-.6.5-1.1 1.1-1.1.5 0 1 .5 1 1.1zm20.9 20.6c0 .6-.5 1-1.1 1H59c-.6 0-1.1-.4-1.1-1s.5-1.1 1.1-1.1h2.3c.6 0 1.1.5 1.1 1.1zm-37-8.7c-.2.4-.6.6-1 .6q-.3 0-.5-.2l-2-1.1c-.6-.3-.7-1-.4-1.5.3-.5.9-.7 1.4-.4l2.1 1.2c.5.3.7.9.4 1.4zm34 19.5c-.2.4-.5.6-.9.6q-.3 0-.5-.2l-2.1-1.1c-.5-.3-.7-1-.4-1.5.3-.5 1-.7 1.5-.4l2 1.2c.6.2.7.9.4 1.4zM51.8 9l-1.2 1.9c-.2.4-.5.6-.9.6q-.3 0-.5-.2c-.6-.3-.7-.9-.4-1.4l1.1-2c.3-.5 1-.7 1.5-.4.5.3.7.9.4 1.5zM32.1 42.7l-1.1 2c-.2.3-.6.5-1 .5q-.2 0-.5-.1c-.5-.3-.7-1-.4-1.5l1.2-2c.3-.5.9-.7 1.4-.4.6.3.7 1 .4 1.5zM59 16.9 57 18q-.2.2-.5.2c-.4 0-.7-.2-1-.6-.3-.5-.1-1.1.4-1.4L58 15c.5-.3 1.1-.1 1.4.4.3.5.2 1.2-.4 1.5zM25 36.4l-2.1 1.1q-.2.2-.5.2c-.4 0-.7-.2-.9-.6-.3-.5-.2-1.2.4-1.4l2-1.2c.5-.3 1.2-.1 1.5.4.3.5.1 1.2-.4 1.5zm6.7-25.1q-.2.2-.5.2c-.4 0-.7-.2-.9-.6L29.1 9c-.3-.6-.1-1.2.4-1.5.5-.3 1.2-.1 1.5.4l1.1 2c.3.5.2 1.1-.4 1.4zm19.7 33.8q-.3.1-.5.1c-.4 0-.8-.2-1-.5l-1.1-2c-.3-.5-.2-1.2.4-1.5.5-.3 1.2-.1 1.4.4l1.2 2c.3.5.1 1.2-.4 1.5z"/>
  </svg>
  <svg version="1.2" viewBox="0 0 43 40" id="rup" xmlns="http://www.w3.org/2000/svg">
    <path fill-rule="evenodd" d="M43.1 15.8c0 3.2-2.3 5.8-5.2 6.2v7.1c0 .8-.4 1.5-1.1 1.9q-.5.3-1.1.3-.5 0-1-.3c-6-3.4-12.4-5.5-19.2-6.3l4.2 11.8c.2.7.1 1.4-.3 2-.4.6-1 .9-1.7.9h-4.9c-.9 0-1.7-.5-2-1.4L6 24.3c-1-.5-1.8-1.5-1.9-2.7H2.7c-1.5 0-2.7-1.2-2.7-2.8v-6C0 11.2 1.2 10 2.7 10h1.4c.2-1.7 1.5-3 3.2-3H14c7.3-.6 14.3-2.7 20.7-6.4.7-.4 1.5-.4 2.1 0 .7.4 1.1 1.1 1.1 1.9v7.1c2.9.4 5.2 3 5.2 6.2zm-39-3.7H2.7c-.3 0-.6.3-.6.7v6c0 .4.3.7.6.7h1.4zm3.1 10.3H13V9.1H7.3c-.6 0-1.2.6-1.2 1.2v10.9c0 .5.3.9.7 1.1.2.1.2.1.4.1zm6 2.1H8.3l4.5 12.7v.1h4.9v-.1zm22.6-22q0-.1-.1-.1C29.3 6.1 22.3 8.3 15 9v13.5c7.3.7 14.3 2.9 20.7 6.6q.1 0 .1-.1zM41 15.8c0-2-1.3-3.6-3.2-4v8c1.9-.4 3.2-2 3.2-4z" style="fill:#a3bbc8"/>
  </svg>
  <svg version="1.2" viewBox="0 0 20 20" id="searc2" xmlns="http://www.w3.org/2000/svg">
    <path fill="#a3bbc8" fill-rule="evenodd" d="M19.5 19.4c-.8.8-2 .8-2.7 0l-4.6-4.5c1.1-.7 2-1.6 2.7-2.7l4.6 4.6c.7.7.7 1.9 0 2.6zM7.5 15C3.4 15 0 11.6 0 7.5S3.4 0 7.5 0 15 3.4 15 7.5 11.6 15 7.5 15zm0-1.9c-3.1 0-5.6-2.5-5.6-5.6 0-3.1 2.5-5.6 5.6-5.6 3.1 0 5.6 2.5 5.6 5.6 0 3.1-2.5 5.6-5.6 5.6zm0-10v1.3c-1.7 0-3.1 1.4-3.1 3.1H3.1c0-2.4 2-4.4 4.4-4.4z"/>
  </svg>
  <svg version="1.2" viewBox="0 0 16 16" id="search" xmlns="http://www.w3.org/2000/svg">
    <path fill="#243f4d" fill-rule="evenodd" d="M3.7 6.1c.4-.1.7.1.7.5q.2.8.8 1.4c.4.4 1 .7 1.5.8.3.1.6.4.5.8-.1.3-.4.5-.7.5-.8-.2-1.6-.6-2.1-1.1-.6-.6-1-1.4-1.2-2.2-.1-.3.1-.7.5-.7zM7 0c3.4 0 6.3 2.8 6.3 6.3q-.1 1.4-.6 2.6l2.3 2c1.7 1.7.8 3.3.3 3.7-.4.5-2 1.4-3.7-.3L9.5 12q-1.1.5-2.5.5C3.5 12.5.7 9.7.7 6.2.7 2.8 3.5 0 7 0zm5.5 13.5c.3.3 1.2.9 1.9.2.2-.1.6-1-.2-1.8L12 10q-.6.8-1.3 1.3zm-5.6-2.3c2.8 0 5-2.2 5-4.9 0-2.8-2.2-5-5-5-2.7 0-5 2.2-5 5 0 2.7 2.3 4.9 5 4.9z"/>
  </svg>
  <svg version="1.2" viewBox="0 0 51 54" id="sup" xmlns="http://www.w3.org/2000/svg">
    <circle cx="41" cy="43.4" r="9.8" style="fill:#a3bbc8;opacity:.3"/>
    <path d="M49 24.6c0 13.6-11 24.6-24.5 24.6-5.4 0-10.5-1.7-14.8-4.9-.4-.3-.5-.9-.2-1.3.4-.4.9-.5 1.4-.2 3.9 3 8.6 4.5 13.6 4.5 12.5 0 22.6-10.1 22.6-22.7 0-4.2-1.1-8.3-3.4-11.9-.3-.5-.1-1.1.3-1.3.5-.3 1-.2 1.3.3C47.7 15.6 49 20 49 24.6zm-25.8 9.9c0 .6-.4 1-.9 1h-9.8c-.4 0-.8-.2-.9-.6-.1-.3-.1-.7.2-1l6.3-6.4c2.1-2 3.2-4.8 3.2-7.7 0-2.2-1.7-3.9-3.9-3.9s-4 1.7-4 3.9c0 .5-.4 1-.9 1s-1-.5-1-1c0-3.2 2.7-5.8 5.9-5.8s5.8 2.6 5.8 5.8c0 3.4-1.3 6.7-3.7 9.1l-4.8 4.7h7.6c.5 0 .9.4.9.9zm15.1-6.4c0 .5-.5.9-1 .9h-2.6v5.5c0 .6-.4 1-.9 1s-1-.4-1-1V29h-6.9c-.3 0-.6-.1-.8-.4-.2-.3-.2-.7 0-1L33 14.4c.2-.4.8-.6 1.3-.3.3.2.4.5.4.8v7.6c0 .5-.4 1-.9 1s-1-.5-1-1v-4.2l-5.2 8.9h5.2v-1.5c0-.6.5-1 1-1s.9.4.9 1v1.5h2.6c.5 0 1 .4 1 .9zm4.4-19.5c.1.5-.4.9-.9 1l-4 .1h-.1c-.5 0-.9-.5-.9-1s.4-.9.9-.9l1.9-.1C35.4 4 30 2 24.5 2 12 2 1.8 12.1 1.8 24.7c0 6.1 2.4 11.8 6.8 16.1.4.4.4 1 0 1.4q-.3.2-.7.2-.3 0-.6-.2C2.5 37.5-.1 31.3-.1 24.6-.1 11.1 10.9.1 24.5.1c3.4 0 6.8.7 10 2.1q3.5 1.6 6.3 4.1V4.6c0-.5.4-1 .9-1s.9.4 1 .9z" style="fill:#a3bbc8"/>
  </svg>
  <svg version="1.2" viewBox="0 0 64 40" id="track" xmlns="http://www.w3.org/2000/svg">
    <path fill="#243f4d" fill-rule="evenodd" d="M64 22.1v10.6c0 .5-.4 1-1 1h-3.3c0 3.5-2.8 6.3-6.3 6.3S47 37.2 47 33.7H24.4h.1c0 3.5-2.9 6.3-6.4 6.3-3.5 0-6.3-2.8-6.3-6.3H6.3c-1.1 0-2-1-2-2.1v-2.2H1c-.6 0-1-.4-1-1 0-.5.4-.9 1-.9h9.6c.6 0 1 .4 1 .9 0 .6-.4 1-1 1H6.3v2.3h5.8c.9-2.5 3.2-4.2 6-4.2s5.1 1.7 6 4.2h20.8v-7.5c0-.5.4-1 1-1 .5 0 1 .5 1 1v7.5h.5c.8-2.5 3.2-4.2 6-4.2s5.1 1.7 6 4.2H62v-4.4h-1.1c-1.8 0-3.2-1.4-3.2-3.1v-2.1c0-.5.5-1 1-1h3.1c-.4-1.3-1.6-2.2-3.1-2.2H46.9V20c0 .5-.5 1-1 1-.6 0-1-.5-1-1V2H6.3v18c0 .5-.5 1-1 1-.6 0-1-.5-1-1V2c0-1.1.9-2 2-2h38.5c1.2 0 2.1.9 2.1 2v2.2h7.5c2.4 0 4.3 1.9 4.3 4.2v1c0 .5-.4.9-.8 1l1.6 6.6c2.6.3 4.5 2.5 4.5 5.1zM46.9 6.2h7.5c1.3 0 2.3 1 2.3 2.2h-9.8zm0 10.7v-6.4h8.9l1.6 6.4H46.9zM18.1 38.1c-2.4 0-4.3-2-4.3-4.3 0-2.4 1.9-4.3 4.3-4.3s4.3 1.9 4.3 4.3c0 2.3-1.9 4.3-4.3 4.3zm35.3 0c-2.4 0-4.4-2-4.4-4.3 0-2.4 2-4.3 4.4-4.3 2.4 0 4.3 1.9 4.3 4.3 0 2.3-1.9 4.3-4.3 4.3zM62 25.4h-1.1c-.7 0-1.2-.5-1.2-1.1v-1.2H62v2.3zm-41.8 8.4c0 1.1-1 2-2.1 2s-2.1-.9-2.1-2c0-1.2 1-2.1 2.1-2.1s2.1.9 2.1 2.1zm35.2 0c0 1.1-.9 2-2 2-1.2 0-2.1-.9-2.1-2 0-1.2.9-2.1 2.1-2.1 1.1 0 2 .9 2 2.1zm-12.8-5.3c0 .5-.4 1-1 1H26.7c-.6 0-1-.5-1-1 0-.6.4-1 1-1h14.9c.6 0 1 .4 1 1zM17 24.3c0 .5-.5 1-1 1H3.1c-.5 0-1-.5-1-1 0-.6.5-1 1-1H16c.5 0 1 .4 1 1zm17.8-13.1-9.6 9.5q-.3.3-.7.3-.4 0-.7-.3l-5.3-5.2c-.4-.4-.4-1 0-1.4.4-.4 1-.4 1.4 0l4.6 4.5 8.9-8.8c.4-.3 1.1-.3 1.4 0 .4.4.4 1.1 0 1.4z"/>
  </svg>
  <svg version="1.2" viewBox="0 0 20 21" id="user" xmlns="http://www.w3.org/2000/svg">
    <path d="M2.1 4.9C1 4.9 0 3.9 0 2.7 0 1.5 1 .6 2.1.6c1.2 0 2.2.9 2.2 2.1 0 1.2-1 2.2-2.2 2.2zm0 7.8C1 12.7 0 11.8 0 10.6c0-1.2 1-2.1 2.1-2.1 1.2 0 2.2.9 2.2 2.1 0 1.2-1 2.1-2.2 2.1zm0 7.9C1 20.6 0 19.7 0 18.5c0-1.2 1-2.2 2.1-2.2 1.2 0 2.2 1 2.2 2.2 0 1.2-1 2.1-2.2 2.1zM10 4.9c-1.2 0-2.1-1-2.1-2.2 0-1.2.9-2.1 2.1-2.1 1.2 0 2.2.9 2.2 2.1 0 1.2-1 2.2-2.2 2.2zm0 7.8c-1.2 0-2.1-.9-2.1-2.1 0-1.2.9-2.1 2.1-2.1 1.2 0 2.2.9 2.2 2.1 0 1.2-1 2.1-2.2 2.1zm0 7.9c-1.2 0-2.1-.9-2.1-2.1 0-1.2.9-2.2 2.1-2.2 1.2 0 2.2 1 2.2 2.2 0 1.2-1 2.1-2.2 2.1zm7.9-15.7c-1.2 0-2.2-1-2.2-2.2 0-1.2 1-2.1 2.2-2.1 1.2 0 2.1.9 2.1 2.1 0 1.2-.9 2.2-2.1 2.2zm0 7.8c-1.2 0-2.2-.9-2.2-2.1 0-1.2 1-2.1 2.2-2.1 1.2 0 2.1.9 2.1 2.1 0 1.2-.9 2.1-2.1 2.1zm0 7.9c-1.2 0-2.2-.9-2.2-2.1 0-1.2 1-2.2 2.2-2.2 1.2 0 2.1 1 2.1 2.2 0 1.2-.9 2.1-2.1 2.1z" style="fill:#fff"/>
  </svg>
  <svg version="1.2" viewBox="0 0 22 25" id="video-play" xmlns="http://www.w3.org/2000/svg">
    <path d="M20.7 14.7 4.6 24.5c-.5.3-1 .5-1.6.5q-.8 0-1.4-.3c-1-.5-1.6-1.4-1.6-2.4V2.7C0 1.7.6.8 1.6.3c.9-.5 2.1-.4 3 .2l16.1 9.8c.8.5 1.3 1.3 1.3 2.2 0 .9-.5 1.7-1.3 2.2z" style="fill:#fff"/>
  </svg>
</svg>
