<svg version="1.2" xmlns="http://www.w3.org/2000/svg" viewBox="0 0 22 20" width="22" height="20"><path fill="#a3bbc8" fill-rule="evenodd" d="m0 0.8c0-0.4 0.4-0.8 0.8-0.8h3c0.3 0 0.6 0.2 0.7 0.6l3.4 12h9l3-6.9h-10c-0.4 0-0.8-0.4-0.8-0.8 0-0.5 0.4-0.8 0.8-0.8h11.3c0.3 0 0.5 0.1 0.7 0.3 0.1 0.3 0.1 0.6 0 0.8l-3.7 8.6c-0.1 0.3-0.4 0.5-0.7 0.5h-10.2c-0.4 0-0.7-0.3-0.8-0.6l-3.4-12.1h-2.3c-0.4 0-0.8-0.3-0.8-0.8zm4.6 17.4c0-1.1 0.9-1.9 1.9-1.9 1 0 1.8 0.8 1.8 1.9 0 1-0.8 1.8-1.8 1.8-1 0-1.9-0.8-1.9-1.8zm11.6 0.1c-0.1-1 0.7-1.9 1.7-2 1-0.1 1.9 0.7 2 1.7 0 0.5-0.2 1-0.5 1.4-0.3 0.3-0.8 0.6-1.3 0.6q0 0-0.1 0c-0.9 0-1.7-0.8-1.8-1.7z"/></svg>