<svg version="1.2" xmlns="http://www.w3.org/2000/svg" viewBox="0 0 55 37" width="55" height="37"><style>.a{fill:#a3bbc8}.b{opacity:.3;fill:#a3bbc8}</style><path class="a" d="m10.6 6.1c0 0.5-0.3 0.8-0.8 0.8h-6.1c-0.4 0-0.8-0.3-0.8-0.8 0-0.4 0.4-0.8 0.8-0.8h6.1c0.5 0 0.8 0.4 0.8 0.8zm0.5 11c0 0.5-0.3 0.8-0.8 0.8h-5.6c-0.4 0-0.7-0.3-0.7-0.8 0-0.4 0.3-0.8 0.7-0.8h5.6c0.5 0 0.8 0.4 0.8 0.8zm-2.1-4.7c0 0.4-0.3 0.8-0.8 0.8h-6.6c-0.4 0-0.8-0.4-0.8-0.8 0-0.4 0.4-0.8 0.8-0.8h6.6c0.5 0 0.8 0.4 0.8 0.8zm0 11c0 0.4-0.3 0.8-0.8 0.8h-0.6c-0.4 0-0.8-0.4-0.8-0.8 0-0.4 0.4-0.8 0.8-0.8h0.6c0.5 0 0.8 0.4 0.8 0.8zm-3.2 0c0 0.4-0.4 0.8-0.8 0.8h-3.4c-0.4 0-0.8-0.4-0.8-0.8 0-0.4 0.4-0.8 0.8-0.8h3.4c0.4 0 0.8 0.4 0.8 0.8zm44.1-12.5v14c0 0.5-0.3 0.8-0.8 0.8h-2.7c-0.4 2.4-2.5 4.2-5 4.2-2.4 0-4.5-1.8-4.9-4.2h-11.2c-0.4 2.4-2.5 4.2-4.9 4.2-2.5 0-4.6-1.8-4.9-4.2h-2.5c-0.4 0-0.7-0.3-0.7-0.8v-23.5c0-0.5 0.3-0.8 0.7-0.8h6.1c0.4 0 0.8 0.3 0.8 0.8 0 0.4-0.4 0.7-0.8 0.7h-5.3v22.1h1.7c0.3-2.4 2.4-4.2 4.9-4.2 2.4 0 4.5 1.8 4.9 4.2h8.3v-1.2c0-0.4 0.4-0.8 0.8-0.8 0.4 0 0.8 0.4 0.8 0.8v1.2h1.3c0.4-2.4 2.5-4.2 4.9-4.2 2.5 0 4.6 1.8 5 4.2h2v-13.3c0-3.6-3-6.6-6.6-6.6h-6.6v15.1c0 0.4-0.4 0.7-0.8 0.7-0.4 0-0.8-0.3-0.8-0.7v-17.3h-11.4c-0.4 0-0.8-0.3-0.8-0.7 0-0.5 0.4-0.8 0.8-0.8h12.2c0.4 0 0.8 0.3 0.8 0.8v1.4h6.6c4.5 0 8.1 3.6 8.1 8.1zm-29.5 17.4c-1.9 0-3.4-1.5-3.4-3.4 0-1.8 1.5-3.4 3.4-3.4 1.8 0 3.4 1.6 3.4 3.4 0 1.9-1.6 3.4-3.4 3.4zm21 0c-1.8 0-3.4-1.5-3.4-3.4q0 0 0 0 0 0 0 0c0-1.8 1.6-3.4 3.4-3.4 1.9 0 3.4 1.6 3.4 3.4 0 1.9-1.5 3.4-3.4 3.4zm5.4-17.4v3.2c0 0.4-0.4 0.8-0.8 0.8h-8.5c-0.4 0-0.7-0.4-0.7-0.8v-7.4c0-0.4 0.3-0.8 0.7-0.8h4.3c2.8 0 5 2.2 5 5zm-1.6 2.4h-6.9v-5.8h3.5c1.9 0 3.4 1.5 3.4 3.4zm-22.8 11.6c0 1.1-0.9 2-2 2-1.1 0-2.1-0.9-2.1-2 0-1.1 1-2 2.1-2 1.1 0 2 0.9 2 2zm-2 0.4c-0.3 0-0.5-0.2-0.5-0.4 0-0.3 0.2-0.5 0.5-0.5 0.2 0 0.4 0.2 0.4 0.5 0 0.2-0.2 0.4-0.4 0.4zm23.1-0.4c0 1.1-0.9 2-2.1 2-1.1 0-2-0.9-2-2 0-1.1 0.9-2 2-2 1.2 0 2.1 0.9 2.1 2zm-2.1 0.4c-0.2 0-0.4-0.2-0.4-0.4 0-0.3 0.2-0.5 0.4-0.5 0.3 0 0.5 0.2 0.5 0.5 0 0.2-0.2 0.4-0.5 0.4zm5.4-7.5v2c0 0.4-0.4 0.7-0.8 0.7-0.4 0-0.8-0.3-0.8-0.7v-2c0-0.5 0.4-0.8 0.8-0.8 0.4 0 0.8 0.3 0.8 0.8z"/><ellipse class="b" cx="44.8" cy="27.2" rx="9.8" ry="9.8"/></svg>