<svg version="1.2" xmlns="http://www.w3.org/2000/svg" viewBox="0 0 23 15" width="23" height="15"><style>.a{fill:#888}</style><path class="a" d="m6.8 14.9q-2.2-0.1-3.9-1.4-2.2-1.6-2.7-4.2-0.3-1-0.2-2 0.2-2.3 1.6-4.1 1.6-1.8 3.9-2.4 0.6-0.2 1.2-0.2 0.3 0 0.7 0 1.8 0 3.4 0.9c0.7 0.4 1.1 0.8 1.2 0.9q-1 1.1-2.1 2.1c-0.5-0.4-1.1-0.9-2.1-1q-0.3-0.1-0.6-0.1c-2 0-3.7 1.5-4.1 3.4q-0.2 0.6-0.1 1.3c0.1 1.8 1.3 3.2 2.9 3.7q0.6 0.2 1.3 0.2 0.1 0 0.3 0c0.7 0 1.4-0.2 2.1-0.7 1.1-0.7 1.4-1.8 1.4-2.1h-3.8c0-0.1 0-1.9 0-2.8v-0.1h6.7c0.4 2.1 0.1 4.3-1.2 6.1-0.9 1.1-2.2 1.9-3.6 2.3q-1 0.2-1.9 0.2-0.2 0-0.4 0zm13.3-4h-1.8-0.1v-0.1-2.4h-2.4-0.1v-0.1-1.8-0.1h0.1 2.4v-2.4-0.1h0.1 1.8 0.1v0.1 2.4h2.4 0.1v0.1 1.8 0.1h-0.1-2.4v2.4 0.1z"/></svg>