<svg version="1.2" xmlns="http://www.w3.org/2000/svg" width="42" height="42"><path fill-rule="evenodd" d="M12.9 32.7c0-1.3.3-2.6.8-3.7L.5 8.6c-.2-.4-.2-.9.1-1.2L6.9 1q.3-.2.7-.2h27.3q.4 0 .6.2l6.4 6.4c.3.3.3.8.1 1.2L28.8 29c.5 1.1.8 2.4.8 3.7 0 4.7-3.8 8.5-8.4 8.5-4.6 0-8.3-3.8-8.3-8.5zm1.8 0c0 3.7 2.9 6.7 6.5 6.7 3.7 0 6.6-3 6.6-6.7S24.9 26 21.2 26c-3.6 0-6.5 3-6.5 6.7zm8.5-8.2c1.8.4 3.4 1.4 4.5 2.8L39.6 9h-6.4zm-8.4 2.9c1.1-1.4 2.7-2.5 4.5-2.9L9.3 9H2.9zm6.5-3.1L31.1 9H11.4zM3.5 7.3h35.7l-4.6-4.6H8zm17.3 28.9v-4.9h-.5c-.5 0-.9-.4-.9-.9s.4-.9.9-.9h1.4c.5 0 .9.4.9.9v5.8c0 .5-.4.9-.9.9s-.9-.4-.9-.9z" fill="#a3bbc8"/></svg>