<svg version="1.2" xmlns="http://www.w3.org/2000/svg" width="22" height="20"><path fill="#a3bbc8" fill-rule="evenodd" d="M0 .8C0 .4.4 0 .8 0h3c.3 0 .6.2.7.6l3.4 12h9l3-6.9h-10c-.4 0-.8-.4-.8-.8 0-.5.4-.8.8-.8h11.3c.3 0 .5.1.7.3.1.3.1.6 0 .8l-3.7 8.6c-.1.3-.4.5-.7.5H7.3c-.4 0-.7-.3-.8-.6L3.1 1.6H.8c-.4 0-.8-.3-.8-.8zm4.6 17.4c0-1.1.9-1.9 1.9-1.9 1 0 1.8.8 1.8 1.9 0 1-.8 1.8-1.8 1.8s-1.9-.8-1.9-1.8zm11.6.1c-.1-1 .7-1.9 1.7-2 1-.1 1.9.7 2 1.7 0 .5-.2 1-.5 1.4-.3.3-.8.6-1.3.6H18c-.9 0-1.7-.8-1.8-1.7z"/></svg>