<svg version="1.2" xmlns="http://www.w3.org/2000/svg" width="55" height="37"><path d="M10.6 6.1c0 .5-.3.8-.8.8H3.7c-.4 0-.8-.3-.8-.8 0-.4.4-.8.8-.8h6.1c.5 0 .8.4.8.8zm.5 11c0 .5-.3.8-.8.8H4.7c-.4 0-.7-.3-.7-.8 0-.4.3-.8.7-.8h5.6c.5 0 .8.4.8.8zM9 12.4c0 .4-.3.8-.8.8H1.6c-.4 0-.8-.4-.8-.8s.4-.8.8-.8h6.6c.5 0 .8.4.8.8zm0 11c0 .4-.3.8-.8.8h-.6c-.4 0-.8-.4-.8-.8s.4-.8.8-.8h.6c.5 0 .8.4.8.8zm-3.2 0c0 .4-.4.8-.8.8H1.6c-.4 0-.8-.4-.8-.8s.4-.8.8-.8H5c.4 0 .8.4.8.8zm44.1-12.5v14c0 .5-.3.8-.8.8h-2.7c-.4 2.4-2.5 4.2-5 4.2-2.4 0-4.5-1.8-4.9-4.2H25.3c-.4 2.4-2.5 4.2-4.9 4.2-2.5 0-4.6-1.8-4.9-4.2H13c-.4 0-.7-.3-.7-.8V1.4c0-.5.3-.8.7-.8h6.1c.4 0 .8.3.8.8 0 .4-.4.7-.8.7h-5.3v22.1h1.7c.3-2.4 2.4-4.2 4.9-4.2 2.4 0 4.5 1.8 4.9 4.2h8.3V23c0-.4.4-.8.8-.8s.8.4.8.8v1.2h1.3c.4-2.4 2.5-4.2 4.9-4.2 2.5 0 4.6 1.8 5 4.2h2V10.9c0-3.6-3-6.6-6.6-6.6h-6.6v15.1c0 .4-.4.7-.8.7s-.8-.3-.8-.7V2.1H22.2c-.4 0-.8-.3-.8-.7 0-.5.4-.8.8-.8h12.2c.4 0 .8.3.8.8v1.4h6.6c4.5 0 8.1 3.6 8.1 8.1zM20.4 28.3c-1.9 0-3.4-1.5-3.4-3.4 0-1.8 1.5-3.4 3.4-3.4 1.8 0 3.4 1.6 3.4 3.4 0 1.9-1.6 3.4-3.4 3.4zm21 0c-1.8 0-3.4-1.5-3.4-3.4 0-1.8 1.6-3.4 3.4-3.4 1.9 0 3.4 1.6 3.4 3.4 0 1.9-1.5 3.4-3.4 3.4zm5.4-17.4v3.2c0 .4-.4.8-.8.8h-8.5c-.4 0-.7-.4-.7-.8V6.7c0-.4.3-.8.7-.8h4.3c2.8 0 5 2.2 5 5zm-1.6 2.4h-6.9V7.5h3.5c1.9 0 3.4 1.5 3.4 3.4zM22.4 24.9c0 1.1-.9 2-2 2s-2.1-.9-2.1-2 1-2 2.1-2 2 .9 2 2zm-2 .4c-.3 0-.5-.2-.5-.4 0-.3.2-.5.5-.5.2 0 .4.2.4.5 0 .2-.2.4-.4.4zm23.1-.4c0 1.1-.9 2-2.1 2-1.1 0-2-.9-2-2s.9-2 2-2c1.2 0 2.1.9 2.1 2zm-2.1.4c-.2 0-.4-.2-.4-.4 0-.3.2-.5.4-.5.3 0 .5.2.5.5 0 .2-.2.4-.5.4zm5.4-7.5v2c0 .4-.4.7-.8.7s-.8-.3-.8-.7v-2c0-.5.4-.8.8-.8s.8.3.8.8z" fill="#a3bbc8"/><circle cx="44.8" cy="27.2" opacity=".3" fill="#a3bbc8" r="9.8"/></svg>