<svg version="1.2" xmlns="http://www.w3.org/2000/svg" width="64" height="57"><path fill="#243f4d" fill-rule="evenodd" d="M64 3.4v41.1c0 1.9-1.5 3.4-3.4 3.4H38.9l.9 7h3.7c.5 0 1 .4 1 1s-.5 1.1-1 1.1h-23c-.5 0-1-.5-1-1.1 0-.6.5-1 1-1h3.7l.9-7H3.4c-1.9 0-3.4-1.5-3.4-3.4V3.4C0 1.5 1.5 0 3.4 0h57.2C62.5 0 64 1.5 64 3.4zM26.3 54.9l.9-7h9.6l.9 7zm35.5-10.4c0 .7-.6 1.2-1.3 1.2H3.3c-.7 0-1.2-.5-1.2-1.2V3.4c0-.7.5-1.3 1.2-1.3h57.2c.7 0 1.3.6 1.3 1.3v41.1zM51.3 5.6c0 .6-.5 1.1-1.1 1.1H6.6V40H9c.6 0 1.1.5 1.1 1.1 0 .6-.5 1-1.1 1H5.6c-.6 0-1.1-.4-1.1-1V5.6c0-.5.5-1 1.1-1h44.6c.6 0 1.1.5 1.1 1zm8 0v35.5c0 .6-.5 1-1 1H13.6c-.6 0-1.1-.4-1.1-1S13 40 13.6 40h43.6V6.7h-2.4c-.6 0-1.1-.5-1.1-1.1 0-.5.5-1 1.1-1h3.5c.5 0 1 .5 1 1zm-4.6 8c0 1.9-1.5 3.4-3.3 3.4q-.8 0-1.4-.3l-8.6 9.1q.4.7.4 1.6c0 1.8-1.5 3.3-3.4 3.3S35 29.2 35 27.4q0-.3.1-.6l-7.4-3.9c-.6.6-1.4 1-2.3 1q-.8-.1-1.5-.4l-8.4 8.1q.3.7.3 1.5c0 1.8-1.5 3.3-3.4 3.3-1.8 0-3.3-1.5-3.3-3.3 0-1.9 1.5-3.4 3.3-3.4q.9 0 1.6.4l8.4-8.2q-.3-.6-.3-1.4c0-1.9 1.5-3.4 3.3-3.4 1.9 0 3.4 1.5 3.4 3.4q0 .3-.1.5l7.4 3.9c.6-.5 1.4-.9 2.3-.9q.8 0 1.4.3l8.6-9.1q-.4-.7-.4-1.6c0-1.8 1.5-3.3 3.4-3.3 1.8 0 3.3 1.5 3.3 3.3zM12.4 34.3c-.6 0-1.2-.6-1.2-1.2 0-.7.6-1.2 1.2-1.2.7 0 1.3.5 1.3 1.2 0 .6-.6 1.2-1.3 1.2zm13-12.6c-.6 0-1.2-.5-1.2-1.2s.6-1.2 1.2-1.2c.7 0 1.2.5 1.2 1.2s-.5 1.2-1.2 1.2zm13 6.9c-.7 0-1.2-.6-1.2-1.2 0-.7.5-1.3 1.2-1.3s1.2.6 1.2 1.3c0 .6-.5 1.2-1.2 1.2zm13-13.7c-.7 0-1.2-.6-1.2-1.3 0-.6.5-1.2 1.2-1.2s1.2.6 1.2 1.2c0 .7-.5 1.3-1.2 1.3zm1.1 5.6v16c0 .6-.5 1.1-1.1 1.1-.6 0-1.1-.5-1.1-1.1v-16c0-.6.5-1.1 1.1-1.1.6 0 1.1.5 1.1 1.1zm-26 6.9v9.1c0 .6-.5 1.1-1.1 1.1-.6 0-1.1-.5-1.1-1.1v-9.1c0-.6.5-1.1 1.1-1.1.6 0 1.1.5 1.1 1.1zm13 6.8v2.3c0 .6-.5 1.1-1.1 1.1-.6 0-1.1-.5-1.1-1.1v-2.3c0-.6.5-1.1 1.1-1.1.6 0 1.1.5 1.1 1.1z"/></svg>