<svg version="1.2" xmlns="http://www.w3.org/2000/svg" width="54" height="53"><path d="M47.3 32.2v8.2c0 2.1-1.8 3.9-3.9 3.9H4.1C2 44.3.3 42.5.3 40.4V16.8C.3 14.7 2 13 4.1 13h25.1c.5 0 .9.3.9.8s-.4.8-.9.8H4.1c-1.2 0-2.2 1-2.2 2.2v2.9h9.9c.5 0 .8.4.8.8 0 .5-.3.9-.8.9H1.9v5.4h27.3c.5 0 .9.4.9.9 0 .4-.4.8-.9.8H1.9v11.9c0 1.2 1 2.2 2.2 2.2h39.3c1.2 0 2.2-1 2.2-2.2v-8.2c0-.5.4-.9.8-.9.5 0 .9.4.9.9zM30.1 20.5c0 .5-.4.9-.9.9H15c-.5 0-.8-.4-.8-.9 0-.4.3-.8.8-.8h14.2c.5 0 .9.4.9.8zm-9.3 11.6c0 .4-.4.8-.8.8H5.7c-.5 0-.8-.4-.8-.8 0-.5.3-.9.8-.9H20c.4 0 .8.4.8.9zm-6.1 4c0 .4-.3.8-.8.8H5.7c-.5 0-.8-.4-.8-.8 0-.5.3-.9.8-.9h8.2c.5 0 .8.4.8.9zm33-15.3V16c0-.7-.6-1.4-1.4-1.4H34.4c-.7 0-1.3.7-1.3 1.4v10.8c0 .7.6 1.3 1.3 1.3h11.9c.8 0 1.4-.6 1.4-1.3v-3.2c0-.5.4-.9.8-.9.5 0 .9.4.9.9v3.2c0 1.6-1.4 3-3.1 3H34.4c-1.6 0-3-1.4-3-3V16c0-1.4 1-2.7 2.4-3V7c0-3.6 2.9-6.6 6.6-6.6C44 .4 47 3.4 47 7v6c1.3.3 2.4 1.6 2.4 3v4.8c0 .4-.4.8-.9.8-.4 0-.8-.4-.8-.8zM45.3 13h-9.8V7c0-2.7 2.2-4.9 4.9-4.9s4.9 2.2 4.9 4.9v6zm-1.8 7.4c0 1.4-1 2.6-2.3 3v2c0 .5-.4.8-.8.8-.5 0-.9-.3-.9-.8v-2c-1.3-.4-2.2-1.6-2.2-3 0-1.7 1.4-3.1 3.1-3.1 1.7 0 3.1 1.4 3.1 3.1zm-3.1 1.4c-.8 0-1.4-.6-1.4-1.4 0-.8.6-1.4 1.4-1.4.8 0 1.4.6 1.4 1.4 0 .8-.6 1.4-1.4 1.4z" fill="#a3bbc8"/><circle cx="44" cy="42.9" opacity=".3" fill="#a3bbc8" r="9.8"/></svg>