<svg version="1.2" xmlns="http://www.w3.org/2000/svg" width="64" height="40"><path fill="#243f4d" fill-rule="evenodd" d="M64 22.1v10.6c0 .5-.4 1-1 1h-3.3c0 3.5-2.8 6.3-6.3 6.3S47 37.2 47 33.7H24.4h.1c0 3.5-2.9 6.3-6.4 6.3-3.5 0-6.3-2.8-6.3-6.3H6.3c-1.1 0-2-1-2-2.1v-2.2H1c-.6 0-1-.4-1-1 0-.5.4-.9 1-.9h9.6c.6 0 1 .4 1 .9 0 .6-.4 1-1 1H6.3v2.3h5.8c.9-2.5 3.2-4.2 6-4.2s5.1 1.7 6 4.2h20.8v-7.5c0-.5.4-1 1-1 .5 0 1 .5 1 1v7.5h.5c.8-2.5 3.2-4.2 6-4.2s5.1 1.7 6 4.2H62v-4.4h-1.1c-1.8 0-3.2-1.4-3.2-3.1v-2.1c0-.5.5-1 1-1h3.1c-.4-1.3-1.6-2.2-3.1-2.2H46.9V20c0 .5-.5 1-1 1-.6 0-1-.5-1-1V2H6.3v18c0 .5-.5 1-1 1-.6 0-1-.5-1-1V2c0-1.1.9-2 2-2h38.5c1.2 0 2.1.9 2.1 2v2.2h7.5c2.4 0 4.3 1.9 4.3 4.2v1c0 .5-.4.9-.8 1l1.6 6.6c2.6.3 4.5 2.5 4.5 5.1zM46.9 6.2h7.5c1.3 0 2.3 1 2.3 2.2h-9.8zm0 10.7v-6.4h8.9l1.6 6.4H46.9zM18.1 38.1c-2.4 0-4.3-2-4.3-4.3 0-2.4 1.9-4.3 4.3-4.3s4.3 1.9 4.3 4.3c0 2.3-1.9 4.3-4.3 4.3zm35.3 0c-2.4 0-4.4-2-4.4-4.3 0-2.4 2-4.3 4.4-4.3 2.4 0 4.3 1.9 4.3 4.3 0 2.3-1.9 4.3-4.3 4.3zM62 25.4h-1.1c-.7 0-1.2-.5-1.2-1.1v-1.2H62v2.3zm-41.8 8.4c0 1.1-1 2-2.1 2s-2.1-.9-2.1-2c0-1.2 1-2.1 2.1-2.1s2.1.9 2.1 2.1zm35.2 0c0 1.1-.9 2-2 2-1.2 0-2.1-.9-2.1-2 0-1.2.9-2.1 2.1-2.1 1.1 0 2 .9 2 2.1zm-12.8-5.3c0 .5-.4 1-1 1H26.7c-.6 0-1-.5-1-1 0-.6.4-1 1-1h14.9c.6 0 1 .4 1 1zM17 24.3c0 .5-.5 1-1 1H3.1c-.5 0-1-.5-1-1 0-.6.5-1 1-1H16c.5 0 1 .4 1 1zm17.8-13.1l-9.6 9.5q-.3.3-.7.3-.4 0-.7-.3l-5.3-5.2c-.4-.4-.4-1 0-1.4.4-.4 1-.4 1.4 0l4.6 4.5 8.9-8.8c.4-.3 1.1-.3 1.4 0 .4.4.4 1.1 0 1.4z"/></svg>